<?xml version="1.0" standalone="no"?><!DOCTYPE svg PUBLIC "-//W3C//DTD SVG 1.1//EN" "http://www.w3.org/Graphics/SVG/1.1/DTD/svg11.dtd"><svg t="1568043737589" class="icon" viewBox="0 0 1024 1024" version="1.1" xmlns="http://www.w3.org/2000/svg" p-id="1476" xmlns:xlink="http://www.w3.org/1999/xlink" width="16" height="16"><defs><style type="text/css"></style></defs><path d="M512 512m-512 0a512 512 0 1 0 1024 0 512 512 0 1 0-1024 0Z" fill="#FBD971" p-id="1477"></path><path d="M472.673524 804.400762c-48.298667 0-96.377905-9.264762-140.702476-27.745524a24.380952 24.380952 0 1 1 18.773333-45.007238c74.386286 30.98819 161.084952 32.01219 237.787429 2.82819 78.433524-29.842286 138.532571-86.820571 169.179428-160.377904a24.380952 24.380952 0 0 1 45.007238 18.773333c-35.84 86.040381-105.764571 152.551619-196.827428 187.196952a375.466667 375.466667 0 0 1-133.217524 24.332191z" fill="#F0C419" p-id="1478"></path><path d="M305.859048 260.924952A69.168762 69.168762 0 0 1 369.273905 219.428571c38.204952 0 65.706667 31.548952 69.168762 69.168762 0 0 1.877333 9.337905-2.243048 26.136381-5.583238 22.893714-18.748952 43.227429-36.473905 58.733715l-93.866666 80.871619-92.281905-80.847238c-17.724952-15.506286-30.890667-35.864381-36.473905-58.733715-4.120381-16.798476-2.243048-26.136381-2.243048-26.136381C178.322286 250.977524 205.824 219.428571 244.028952 219.428571c28.355048 0 51.151238 17.066667 61.830096 41.496381zM716.55619 260.924952A69.193143 69.193143 0 0 1 779.971048 219.428571c38.204952 0 65.706667 31.548952 69.168762 69.168762 0 0 1.877333 9.337905-2.243048 26.136381-5.583238 22.893714-18.748952 43.227429-36.473905 58.733715l-93.866667 80.871619-92.281904-80.871619c-17.724952-15.506286-30.890667-35.864381-36.473905-58.733715-4.120381-16.798476-2.243048-26.136381-2.243048-26.136381C589.019429 250.977524 616.545524 219.428571 654.726095 219.428571c28.379429 0 51.151238 17.066667 61.830095 41.496381z" fill="#E64C3C" p-id="1479"></path></svg>